<svg xmlns="http://www.w3.org/2000/svg" xmlns:xlink="http://www.w3.org/1999/xlink" width="507" zoomAndPan="magnify" viewBox="0 0 380.25 374.999991" height="500" preserveAspectRatio="xMidYMid meet" version="1.0"><defs><clipPath id="id1"><path d="M 47.378906 13 L 379.421875 13 L 379.421875 138 L 47.378906 138 Z M 47.378906 13 " clip-rule="nonzero"/></clipPath><clipPath id="id2"><path d="M 63.84375 137.082031 L 315.96875 137.082031 L 315.96875 374.480469 L 63.84375 374.480469 Z M 63.84375 137.082031 " clip-rule="nonzero"/></clipPath><clipPath id="id3"><path d="M 157.488281 253.363281 L 222 253.363281 L 222 374.480469 L 157.488281 374.480469 Z M 157.488281 253.363281 " clip-rule="nonzero"/></clipPath><clipPath id="id4"><path d="M 0.0390625 0.367188 L 379.421875 0.367188 L 379.421875 150 L 0.0390625 150 Z M 0.0390625 0.367188 " clip-rule="nonzero"/></clipPath></defs><g clip-path="url(#id1)"><path fill="#d90b00" d="M 379.421875 137.84375 L 213.429688 13.527344 L 47.441406 137.84375 L 93.550781 137.84375 C 93.578125 137.839844 93.605469 137.839844 93.632812 137.839844 L 333.226562 137.839844 C 333.253906 137.839844 333.28125 137.839844 333.308594 137.84375 L 379.421875 137.84375 " fill-opacity="1" fill-rule="evenodd"/></g><path fill="#ffd83b" d="M 327.296875 149.699219 L 99.5625 149.699219 L 99.5625 353.777344 C 99.5625 356.207031 100.558594 358.421875 102.167969 360.027344 C 103.777344 361.636719 105.992188 362.636719 108.421875 362.636719 L 181.636719 362.636719 L 181.636719 259.660156 C 181.636719 256.386719 184.292969 253.734375 187.566406 253.734375 L 239.292969 253.734375 C 242.570312 253.734375 245.222656 256.386719 245.222656 259.660156 L 245.222656 362.636719 L 318.4375 362.636719 C 320.867188 362.636719 323.082031 361.636719 324.691406 360.027344 C 326.296875 358.421875 327.296875 356.207031 327.296875 353.777344 L 327.296875 149.699219 " fill-opacity="1" fill-rule="evenodd"/><path fill="#d90b00" d="M 233.367188 362.636719 L 233.367188 265.589844 L 193.492188 265.589844 L 193.492188 362.636719 L 233.367188 362.636719 " fill-opacity="1" fill-rule="evenodd"/><g clip-path="url(#id2)"><path fill="#1c0100" d="M 315.441406 143.769531 L 315.441406 353.777344 C 315.441406 359.476562 313.113281 364.660156 309.363281 368.410156 C 305.613281 372.160156 300.429688 374.492188 294.726562 374.492188 L 84.714844 374.492188 C 79.007812 374.492188 73.828125 372.160156 70.078125 368.410156 C 66.328125 364.660156 63.996094 359.476562 63.996094 353.777344 L 63.996094 143.769531 C 63.996094 140.496094 66.652344 137.839844 69.925781 137.839844 L 309.515625 137.839844 C 312.789062 137.839844 315.441406 140.496094 315.441406 143.769531 Z M 303.585938 353.777344 L 303.585938 149.699219 L 75.851562 149.699219 L 75.851562 353.777344 C 75.851562 356.207031 76.851562 358.421875 78.457031 360.027344 C 80.066406 361.636719 82.28125 362.636719 84.714844 362.636719 L 294.726562 362.636719 C 297.160156 362.636719 299.371094 361.636719 300.980469 360.027344 C 302.589844 358.421875 303.585938 356.207031 303.585938 353.777344 " fill-opacity="1" fill-rule="evenodd"/></g><g clip-path="url(#id3)"><path fill="#1c0100" d="M 163.855469 253.734375 L 215.582031 253.734375 C 218.859375 253.734375 221.511719 256.386719 221.511719 259.660156 L 221.511719 368.5625 C 221.511719 371.839844 218.859375 374.492188 215.582031 374.492188 L 163.855469 374.492188 C 160.582031 374.492188 157.925781 371.839844 157.925781 368.5625 L 157.925781 259.660156 C 157.925781 256.386719 160.582031 253.734375 163.855469 253.734375 Z M 209.660156 265.589844 L 169.78125 265.589844 L 169.78125 362.636719 L 209.660156 362.636719 L 209.660156 265.589844 " fill-opacity="1" fill-rule="evenodd"/></g><g clip-path="url(#id4)"><path fill="#1c0100" d="M 193.683594 1.742188 L 376.574219 138.71875 L 377.011719 139.046875 L 377.03125 139.027344 C 379.644531 140.992188 380.175781 144.707031 378.214844 147.324219 C 377.046875 148.886719 375.253906 149.707031 373.441406 149.699219 L 5.96875 149.699219 C 2.691406 149.699219 0.0390625 147.046875 0.0390625 143.769531 C 0.0390625 141.636719 1.160156 139.773438 2.847656 138.726562 L 3.585938 138.175781 L 186.179688 1.429688 L 189.71875 6.152344 L 186.167969 1.40625 C 188.46875 -0.320312 191.625 -0.117188 193.683594 1.742188 Z M 355.707031 137.84375 L 189.71875 13.527344 L 23.730469 137.84375 Z M 355.707031 137.84375 " fill-opacity="1" fill-rule="evenodd"/></g></svg>