<svg xmlns="http://www.w3.org/2000/svg" xmlns:xlink="http://www.w3.org/1999/xlink" width="100" zoomAndPan="magnify" viewBox="0 0 75 74.999997" height="100" preserveAspectRatio="xMidYMid meet" version="1.0"><path fill="#0099dd" d="M 73.75 37.5 C 73.75 57.519531 57.519531 73.75 37.5 73.75 C 17.480469 73.75 1.25 57.519531 1.25 37.5 C 1.25 17.480469 17.480469 1.25 37.5 1.25 C 57.519531 1.25 73.75 17.480469 73.75 37.5 " fill-opacity="1" fill-rule="nonzero"/><path fill="#00abbd" d="M 37.5 1.25 C 17.480469 1.25 1.25 17.480469 1.25 37.5 C 1.25 47.507812 5.308594 56.570312 11.863281 63.132812 L 63.132812 11.863281 C 56.570312 5.308594 47.507812 1.25 37.5 1.25 " fill-opacity="1" fill-rule="nonzero"/><path fill="#ff9933" d="M 37.5 16.25 C 34.734375 16.25 32.5 18.484375 32.5 21.25 C 32.5 24.011719 34.734375 26.25 37.5 26.25 C 40.261719 26.25 42.5 24.011719 42.5 21.25 C 42.5 18.484375 40.261719 16.25 37.5 16.25 " fill-opacity="1" fill-rule="nonzero"/><path fill="#ff9933" d="M 37.5 31.25 L 31.25 31.25 C 29.179688 31.25 27.5 32.929688 27.5 35 C 27.5 37.070312 29.179688 38.75 31.25 38.75 L 32.5 38.75 L 32.5 56.25 C 32.5 57.625 33.0625 58.875 33.960938 59.789062 C 34.820312 60.632812 35.980469 61.179688 37.261719 61.246094 C 40.136719 61.382812 42.5 58.847656 42.5 55.964844 L 42.5 36.25 C 42.5 33.484375 40.261719 31.25 37.5 31.25 " fill-opacity="1" fill-rule="nonzero"/><path fill="#545454" d="M 37.5 2.5 C 18.199219 2.5 2.5 18.199219 2.5 37.5 C 2.5 56.800781 18.199219 72.5 37.5 72.5 C 56.800781 72.5 72.5 56.800781 72.5 37.5 C 72.5 18.199219 56.800781 2.5 37.5 2.5 Z M 37.5 75 C 16.820312 75 0 58.179688 0 37.5 C 0 16.820312 16.820312 0 37.5 0 C 58.179688 0 75 16.820312 75 37.5 C 75 58.179688 58.179688 75 37.5 75 " fill-opacity="1" fill-rule="nonzero"/><path fill="#545454" d="M 35 7.597656 C 34.351562 7.597656 33.804688 7.097656 33.753906 6.445312 C 33.699219 5.757812 34.214844 5.15625 34.902344 5.101562 C 35.761719 5.035156 36.636719 5 37.5 5 C 38.1875 5 38.75 5.5625 38.75 6.25 C 38.75 6.9375 38.1875 7.5 37.5 7.5 C 36.703125 7.5 35.894531 7.535156 35.097656 7.597656 C 35.0625 7.597656 35.035156 7.597656 35 7.597656 " fill-opacity="1" fill-rule="nonzero"/><path fill="#545454" d="M 6.25 38.75 C 5.5625 38.75 5 38.1875 5 37.5 C 5 22.519531 15.15625 9.539062 29.703125 5.945312 C 30.367188 5.777344 31.042969 6.1875 31.210938 6.859375 C 31.375 7.527344 30.972656 8.207031 30.296875 8.375 C 16.875 11.6875 7.5 23.667969 7.5 37.5 C 7.5 38.1875 6.9375 38.75 6.25 38.75 " fill-opacity="1" fill-rule="nonzero"/><path fill="#545454" d="M 37.5 17.5 C 35.429688 17.5 33.75 19.179688 33.75 21.25 C 33.75 23.320312 35.429688 25 37.5 25 C 39.570312 25 41.25 23.320312 41.25 21.25 C 41.25 19.179688 39.570312 17.5 37.5 17.5 Z M 37.5 27.5 C 34.050781 27.5 31.25 24.695312 31.25 21.25 C 31.25 17.800781 34.050781 15 37.5 15 C 40.945312 15 43.75 17.800781 43.75 21.25 C 43.75 24.695312 40.945312 27.5 37.5 27.5 " fill-opacity="1" fill-rule="nonzero"/><path fill="#545454" d="M 31.25 32.5 C 29.871094 32.5 28.75 33.621094 28.75 35 C 28.75 36.375 29.871094 37.5 31.25 37.5 L 32.5 37.5 C 33.1875 37.5 33.75 38.0625 33.75 38.75 L 33.75 56.25 C 33.75 57.246094 34.140625 58.1875 34.851562 58.910156 C 35.511719 59.558594 36.390625 59.949219 37.320312 59.996094 C 38.277344 60.046875 39.214844 59.675781 39.957031 58.972656 C 40.777344 58.1875 41.25 57.09375 41.25 55.964844 L 41.25 36.25 C 41.25 34.179688 39.570312 32.5 37.5 32.5 Z M 37.484375 62.5 C 37.386719 62.5 37.292969 62.496094 37.203125 62.496094 C 35.660156 62.417969 34.195312 61.773438 33.085938 60.679688 C 31.898438 59.472656 31.25 57.90625 31.25 56.25 L 31.25 40 C 28.492188 40 26.25 37.757812 26.25 35 C 26.25 32.242188 28.492188 30 31.25 30 L 37.5 30 C 40.945312 30 43.75 32.800781 43.75 36.25 L 43.75 55.964844 C 43.75 57.773438 42.996094 59.527344 41.679688 60.78125 C 40.511719 61.894531 39.03125 62.5 37.484375 62.5 " fill-opacity="1" fill-rule="nonzero"/></svg>