<svg xmlns="http://www.w3.org/2000/svg" xmlns:xlink="http://www.w3.org/1999/xlink" width="100" zoomAndPan="magnify" viewBox="0 0 75 84.749999" height="113" preserveAspectRatio="xMidYMid meet" version="1.0"><defs><clipPath id="id1"><path d="M 0.109375 0.0234375 L 74.890625 0.0234375 L 74.890625 84.5 L 0.109375 84.5 Z M 0.109375 0.0234375 " clip-rule="nonzero"/></clipPath></defs><path fill="#ff993b" d="M 66.273438 2.449219 L 8.742188 2.449219 C 5.28125 2.449219 2.472656 5.257812 2.472656 8.722656 L 2.472656 58.589844 C 2.472656 62.054688 5.28125 64.863281 8.742188 64.863281 L 16.421875 64.863281 L 45.652344 82.09375 L 40.46875 64.863281 L 66.273438 64.863281 C 69.734375 64.863281 72.542969 62.054688 72.542969 58.589844 L 72.542969 8.722656 C 72.542969 5.257812 69.734375 2.449219 66.273438 2.449219 " fill-opacity="1" fill-rule="nonzero"/><path fill="#ff8514" d="M 66.273438 2.449219 L 55.902344 2.449219 C 59.363281 2.449219 62.171875 5.257812 62.171875 8.722656 L 62.171875 58.589844 C 62.171875 62.054688 59.363281 64.863281 55.902344 64.863281 L 66.273438 64.863281 C 69.734375 64.863281 72.542969 62.054688 72.542969 58.589844 L 72.542969 8.722656 C 72.542969 5.257812 69.734375 2.449219 66.273438 2.449219 " fill-opacity="1" fill-rule="nonzero"/><g clip-path="url(#id1)"><path fill="#545454" d="M 8.742188 4.808594 C 6.585938 4.808594 4.832031 6.5625 4.832031 8.722656 L 4.832031 58.589844 C 4.832031 60.746094 6.585938 62.503906 8.742188 62.503906 L 16.421875 62.503906 C 16.84375 62.503906 17.257812 62.617188 17.621094 62.828125 L 41.660156 77.003906 L 38.210938 65.542969 C 37.996094 64.828125 38.132812 64.054688 38.578125 63.453125 C 39.023438 62.855469 39.722656 62.503906 40.46875 62.503906 L 66.273438 62.503906 C 68.429688 62.503906 70.1875 60.746094 70.1875 58.589844 L 70.1875 8.722656 C 70.1875 6.5625 68.429688 4.808594 66.273438 4.808594 Z M 45.652344 84.453125 C 45.242188 84.453125 44.828125 84.347656 44.457031 84.128906 L 15.78125 67.21875 L 8.742188 67.21875 C 3.988281 67.21875 0.117188 63.347656 0.117188 58.589844 L 0.117188 8.722656 C 0.117188 3.960938 3.988281 0.0898438 8.742188 0.0898438 L 66.273438 0.0898438 C 71.03125 0.0898438 74.902344 3.960938 74.902344 8.722656 L 74.902344 58.589844 C 74.902344 63.347656 71.03125 67.21875 66.273438 67.21875 L 43.640625 67.21875 L 47.867188 81.269531 C 47.960938 81.523438 48.015625 81.804688 48.015625 82.09375 C 48.015625 83.398438 46.960938 84.453125 45.660156 84.453125 C 45.660156 84.453125 45.65625 84.453125 45.652344 84.453125 " fill-opacity="1" fill-rule="nonzero"/></g><path fill="#545454" d="M 63.914062 15.105469 L 11.105469 15.105469 C 9.804688 15.105469 8.746094 14.050781 8.746094 12.746094 C 8.746094 11.441406 9.804688 10.386719 11.105469 10.386719 L 63.914062 10.386719 C 65.214844 10.386719 66.269531 11.441406 66.269531 12.746094 C 66.269531 14.050781 65.214844 15.105469 63.914062 15.105469 " fill-opacity="1" fill-rule="nonzero"/><path fill="#545454" d="M 63.914062 24.777344 L 11.105469 24.777344 C 9.804688 24.777344 8.746094 23.71875 8.746094 22.417969 C 8.746094 21.113281 9.804688 20.058594 11.105469 20.058594 L 63.914062 20.058594 C 65.214844 20.058594 66.269531 21.113281 66.269531 22.417969 C 66.269531 23.71875 65.214844 24.777344 63.914062 24.777344 " fill-opacity="1" fill-rule="nonzero"/><path fill="#545454" d="M 33.632812 34.449219 L 11.105469 34.449219 C 9.804688 34.449219 8.746094 33.390625 8.746094 32.089844 C 8.746094 30.785156 9.804688 29.730469 11.105469 29.730469 L 33.632812 29.730469 C 34.933594 29.730469 35.988281 30.785156 35.988281 32.089844 C 35.988281 33.390625 34.933594 34.449219 33.632812 34.449219 " fill-opacity="1" fill-rule="nonzero"/></svg>