<svg xmlns="http://www.w3.org/2000/svg" xmlns:xlink="http://www.w3.org/1999/xlink" width="100" zoomAndPan="magnify" viewBox="0 0 75 77.249999" height="103" preserveAspectRatio="xMidYMid meet" version="1.0"><defs><clipPath id="id1"><path d="M 0.359375 0.289062 L 74.636719 0.289062 L 74.636719 75 L 0.359375 75 Z M 0.359375 0.289062 " clip-rule="nonzero"/></clipPath></defs><path fill="#ff9933" d="M 73.121094 7.160156 L 73.121094 48.527344 C 73.121094 51.570312 70.671875 54.027344 67.640625 54.027344 L 57.117188 54.027344 L 57.117188 53.585938 C 57.117188 42.722656 48.332031 33.890625 37.480469 33.890625 C 26.628906 33.890625 17.859375 42.722656 17.859375 53.605469 L 17.859375 54.042969 L 7.355469 54.042969 C 4.324219 54.042969 1.875 51.589844 1.875 48.546875 L 1.875 7.160156 C 1.875 6.425781 2.019531 5.695312 2.3125 5.015625 L 2.421875 5.054688 L 34.0625 26.414062 C 35.890625 27.660156 38.285156 27.679688 40.128906 26.453125 L 72.703125 5.144531 L 72.738281 5.125 C 72.992188 5.785156 73.121094 6.464844 73.121094 7.160156 Z M 73.121094 7.160156 " fill-opacity="1" fill-rule="nonzero"/><path fill="#ffe36e" d="M 72.738281 5.144531 L 72.703125 5.164062 L 40.148438 26.46875 C 38.300781 27.679688 35.910156 27.660156 34.082031 26.433594 L 2.421875 5.054688 L 2.292969 5.015625 C 3.171875 3 5.144531 1.664062 7.355469 1.664062 L 67.640625 1.664062 C 69.886719 1.664062 71.898438 3.039062 72.738281 5.144531 Z M 72.738281 5.144531 " fill-opacity="1" fill-rule="nonzero"/><path fill="#0099dd" d="M 57.136719 53.605469 L 57.136719 54.042969 C 56.898438 64.90625 47.910156 73.539062 37.078125 73.300781 C 26.574219 73.0625 18.113281 64.578125 17.878906 54.042969 L 17.878906 53.605469 C 17.878906 42.738281 26.664062 33.910156 37.515625 33.910156 C 48.367188 33.910156 57.136719 42.722656 57.136719 53.605469 Z M 44.039062 60.839844 C 47.601562 60.839844 49.152344 57.230469 49.152344 52.964844 C 49.152344 45.855469 44.933594 41.476562 37.664062 41.476562 C 29.605469 41.476562 25.824219 46.988281 25.824219 54.007812 C 25.824219 62.03125 30.777344 65.84375 36.109375 65.84375 C 38.320312 65.84375 42.339844 65.183594 42.339844 63.679688 C 42.339844 63.222656 41.957031 62.363281 41.226562 62.363281 C 40.457031 62.363281 39.433594 63.257812 36.621094 63.257812 C 30.539062 63.257812 28.730469 58.882812 28.730469 53.953125 C 28.730469 48.675781 30.777344 44.023438 37.664062 44.023438 C 43.617188 44.023438 46.320312 47.464844 46.320312 53.640625 C 46.320312 55.382812 46.085938 58.570312 44.3125 58.570312 C 43.65625 58.570312 43.234375 58.109375 43.070312 56.902344 L 43.070312 51.039062 C 43.070312 47.941406 40.4375 46.386719 37.496094 46.386719 C 35.105469 46.386719 32.546875 47.394531 32.546875 48.710938 C 32.546875 49.261719 33.003906 50.378906 33.625 50.378906 C 34.246094 50.378906 34.902344 49.445312 37.023438 49.445312 C 38.960938 49.445312 39.820312 50.25 39.820312 51.882812 L 39.820312 52.394531 L 38.703125 52.394531 C 34.683594 52.394531 31.742188 53.402344 31.742188 56.664062 C 31.742188 59.46875 33.953125 60.65625 36.074219 60.65625 C 37.972656 60.65625 39.289062 59.722656 40.402344 58.292969 C 40.714844 59.742188 42.066406 60.839844 44.039062 60.839844 Z M 44.039062 60.839844 " fill-opacity="1" fill-rule="nonzero"/><path fill="#0099dd" d="M 39.984375 54.355469 L 39.984375 55.4375 C 39.984375 56.863281 38.503906 58.277344 36.894531 58.277344 C 35.964844 58.277344 35.304688 57.726562 35.304688 56.609375 C 35.304688 54.976562 36.730469 54.355469 39.105469 54.355469 Z M 39.984375 54.355469 " fill-opacity="1" fill-rule="nonzero"/><g clip-path="url(#id1)"><path fill="#545454" d="M 67.640625 0.289062 L 7.355469 0.289062 C 4.578125 0.269531 2.039062 1.9375 0.960938 4.503906 C 0.59375 5.34375 0.414062 6.261719 0.414062 7.179688 L 0.414062 48.546875 C 0.429688 52.359375 3.519531 55.453125 7.316406 55.4375 L 16.488281 55.4375 C 16.910156 60.457031 19.121094 65.164062 22.738281 68.683594 C 30.921875 76.761719 44.074219 76.761719 52.257812 68.683594 C 55.875 65.183594 58.085938 60.476562 58.507812 55.453125 L 67.640625 55.453125 C 71.441406 55.472656 74.546875 52.414062 74.582031 48.582031 L 74.582031 7.160156 C 74.582031 6.296875 74.417969 5.4375 74.089844 4.632812 C 73.046875 1.992188 70.472656 0.253906 67.640625 0.289062 Z M 7.355469 3.222656 L 67.640625 3.222656 C 68.863281 3.203125 70.015625 3.75 70.785156 4.703125 L 39.34375 25.261719 C 37.992188 26.140625 36.238281 26.140625 34.886719 25.222656 L 4.304688 4.59375 C 5.070312 3.714844 6.1875 3.203125 7.355469 3.222656 Z M 55.65625 54.007812 C 55.457031 64.046875 47.160156 72.035156 37.152344 71.816406 C 32.527344 71.722656 28.125 69.855469 24.820312 66.613281 C 21.402344 63.257812 19.414062 58.789062 19.414062 54.007812 C 19.414062 53.878906 19.375 53.75 19.375 53.605469 C 19.375 43.546875 27.503906 35.390625 37.515625 35.390625 C 47.527344 35.390625 55.675781 43.546875 55.675781 53.585938 L 55.675781 53.605469 C 55.675781 53.734375 55.675781 53.859375 55.65625 54.007812 Z M 71.660156 48.546875 C 71.660156 50.746094 69.871094 52.523438 67.679688 52.503906 L 58.5625 52.503906 C 58.03125 41.328125 48.789062 32.386719 37.496094 32.386719 C 26.207031 32.386719 16.964844 41.328125 16.433594 52.503906 L 7.355469 52.503906 C 5.164062 52.542969 3.371094 50.78125 3.335938 48.582031 L 3.335938 7.433594 L 33.257812 27.644531 C 35.578125 29.21875 38.613281 29.238281 40.949219 27.699219 L 71.660156 7.582031 Z M 71.660156 48.546875 " fill-opacity="1" fill-rule="nonzero"/></g><path fill="#545454" d="M 49.152344 52.964844 C 49.152344 57.230469 47.601562 60.839844 44.039062 60.839844 C 42.066406 60.839844 40.714844 59.722656 40.402344 58.3125 C 39.289062 59.742188 37.972656 60.675781 36.074219 60.675781 C 33.953125 60.675781 31.742188 59.503906 31.742188 56.683594 C 31.742188 53.421875 34.683594 52.414062 38.703125 52.414062 L 39.820312 52.414062 L 39.820312 51.898438 C 39.820312 50.269531 38.960938 49.464844 37.023438 49.464844 C 34.902344 49.464844 34.265625 50.398438 33.625 50.398438 C 32.984375 50.398438 32.546875 49.28125 32.546875 48.730469 C 32.546875 47.410156 35.105469 46.402344 37.496094 46.402344 C 40.4375 46.402344 43.070312 47.960938 43.070312 51.058594 L 43.070312 56.917969 C 43.25 58.128906 43.65625 58.585938 44.3125 58.585938 C 46.085938 58.585938 46.320312 55.398438 46.320312 53.660156 C 46.320312 47.484375 43.617188 44.039062 37.664062 44.039062 C 30.777344 44.039062 28.730469 48.695312 28.730469 53.96875 C 28.730469 58.898438 30.539062 63.277344 36.621094 63.277344 C 39.414062 63.277344 40.457031 62.378906 41.226562 62.378906 C 41.957031 62.378906 42.339844 63.242188 42.339844 63.699219 C 42.339844 65.183594 38.320312 65.859375 36.109375 65.859375 C 30.777344 65.859375 25.824219 62.050781 25.824219 54.027344 C 25.824219 47.007812 29.585938 41.492188 37.664062 41.492188 C 44.933594 41.492188 49.152344 45.855469 49.152344 52.964844 Z M 39.984375 55.4375 L 39.984375 54.355469 L 39.125 54.355469 C 36.730469 54.355469 35.324219 54.976562 35.324219 56.609375 C 35.324219 57.726562 35.980469 58.277344 36.914062 58.277344 C 38.503906 58.277344 39.984375 56.863281 39.984375 55.4375 Z M 39.984375 55.4375 " fill-opacity="1" fill-rule="nonzero"/></svg>