<svg xmlns="http://www.w3.org/2000/svg" xmlns:xlink="http://www.w3.org/1999/xlink" width="285" zoomAndPan="magnify" viewBox="0 0 213.75 187.499995" height="250" preserveAspectRatio="xMidYMid meet" version="1.0"><defs><clipPath id="id1"><path d="M 0.160156 0 L 213.339844 0 L 213.339844 120 L 0.160156 120 Z M 0.160156 0 " clip-rule="nonzero"/></clipPath><clipPath id="id2"><path d="M 26 33 L 187 33 L 187 187 L 26 187 Z M 26 33 " clip-rule="nonzero"/></clipPath></defs><path fill="#f3674b" d="M 208.617188 107.273438 C 211.355469 104.707031 211.355469 100.542969 208.617188 97.976562 L 106.925781 2.621094 L 106.785156 2.753906 L 106.644531 2.621094 L 4.953125 97.976562 C 2.214844 100.542969 2.214844 104.707031 4.953125 107.273438 L 12.753906 114.585938 C 15.492188 117.152344 19.929688 117.152344 22.667969 114.585938 L 106.785156 35.71875 L 190.902344 114.585938 C 193.640625 117.152344 198.078125 117.152344 200.816406 114.585938 L 208.617188 107.273438 " fill-opacity="1" fill-rule="nonzero"/><g clip-path="url(#id1)"><path fill="#545454" d="M 106.785156 33.128906 C 107.421875 33.128906 108.054688 33.359375 108.554688 33.828125 L 192.671875 112.699219 C 193.515625 113.488281 194.644531 113.925781 195.859375 113.925781 C 197.070312 113.925781 198.203125 113.488281 199.046875 112.699219 L 206.847656 105.386719 C 207.644531 104.640625 208.082031 103.65625 208.082031 102.625 C 208.082031 101.589844 207.644531 100.609375 206.847656 99.863281 L 106.785156 6.039062 L 6.722656 99.863281 C 5.925781 100.609375 5.488281 101.589844 5.488281 102.625 C 5.488281 103.65625 5.925781 104.640625 6.722656 105.386719 L 14.523438 112.699219 C 15.367188 113.488281 16.496094 113.925781 17.710938 113.925781 C 18.921875 113.925781 20.054688 113.488281 20.898438 112.699219 L 105.015625 33.828125 C 105.511719 33.359375 106.148438 33.128906 106.785156 33.128906 Z M 195.859375 119.101562 C 193.324219 119.101562 190.933594 118.167969 189.128906 116.476562 L 106.785156 39.265625 L 24.441406 116.476562 C 22.636719 118.167969 20.246094 119.101562 17.710938 119.101562 C 15.175781 119.101562 12.789062 118.167969 10.980469 116.476562 L 3.179688 109.160156 C 1.328125 107.425781 0.308594 105.105469 0.308594 102.625 C 0.308594 100.148438 1.328125 97.824219 3.179688 96.085938 L 104.875 0.734375 C 105.410156 0.234375 106.101562 0.00390625 106.785156 0.0390625 C 107.457031 0.00390625 108.160156 0.234375 108.695312 0.734375 L 210.390625 96.085938 C 212.242188 97.824219 213.261719 100.148438 213.261719 102.625 C 213.261719 105.105469 212.242188 107.425781 210.390625 109.160156 L 202.589844 116.476562 C 200.78125 118.167969 198.394531 119.101562 195.859375 119.101562 " fill-opacity="1" fill-rule="nonzero"/></g><path fill="#5ce1e6" d="M 183.609375 168.1875 L 183.609375 107.640625 L 106.785156 35.632812 L 29.078125 107.640625 L 29.078125 168.1875 C 29.078125 177.285156 36.453125 184.65625 45.554688 184.65625 L 167.132812 184.65625 C 176.230469 184.65625 183.609375 177.285156 183.609375 168.1875 " fill-opacity="1" fill-rule="nonzero"/><g clip-path="url(#id2)"><path fill="#545454" d="M 31.667969 108.769531 L 31.667969 168.1875 C 31.667969 175.84375 37.898438 182.070312 45.550781 182.070312 L 167.132812 182.070312 C 174.789062 182.070312 181.019531 175.84375 181.019531 168.1875 L 181.019531 108.761719 L 106.777344 39.171875 Z M 167.132812 187.246094 L 45.550781 187.246094 C 35.039062 187.246094 26.488281 178.695312 26.488281 168.1875 L 26.488281 107.640625 C 26.488281 106.921875 26.785156 106.234375 27.316406 105.742188 L 105.027344 33.734375 C 106.023438 32.8125 107.5625 32.8125 108.554688 33.746094 L 185.378906 105.753906 C 185.902344 106.242188 186.195312 106.921875 186.195312 107.640625 L 186.195312 168.1875 C 186.195312 178.695312 177.644531 187.246094 167.132812 187.246094 " fill-opacity="1" fill-rule="nonzero"/></g></svg>