<svg xmlns="http://www.w3.org/2000/svg" xmlns:xlink="http://www.w3.org/1999/xlink" width="109" zoomAndPan="magnify" viewBox="0 0 81.75 74.999997" height="100" preserveAspectRatio="xMidYMid meet" version="1.0"><defs><clipPath id="id1"><path d="M 10 8 L 72 8 L 72 74.882812 L 10 74.882812 Z M 10 8 " clip-rule="nonzero"/></clipPath><clipPath id="id2"><path d="M 37 8 L 72 8 L 72 74.882812 L 37 74.882812 Z M 37 8 " clip-rule="nonzero"/></clipPath><clipPath id="id3"><path d="M 32 42 L 51 42 L 51 74.882812 L 32 74.882812 Z M 32 42 " clip-rule="nonzero"/></clipPath><clipPath id="id4"><path d="M 43 42 L 51 42 L 51 74.882812 L 43 74.882812 Z M 43 42 " clip-rule="nonzero"/></clipPath><clipPath id="id5"><path d="M 0 0.113281 L 81.5 0.113281 L 81.5 37 L 0 37 Z M 0 0.113281 " clip-rule="nonzero"/></clipPath></defs><path fill="#ffde3e" d="M 23.175781 16.011719 L 23.175781 10.722656 L 12.648438 10.722656 L 12.648438 25.175781 Z M 23.175781 16.011719 " fill-opacity="1" fill-rule="nonzero"/><path fill="#fcd400" d="M 17.683594 10.722656 L 17.683594 20.792969 L 23.175781 16.011719 L 23.175781 10.722656 Z M 17.683594 10.722656 " fill-opacity="1" fill-rule="nonzero"/><g clip-path="url(#id1)"><path fill="#ffb427" d="M 40.355469 9.007812 L 10.039062 35.390625 L 10.039062 73.257812 C 10.039062 74.257812 10.851562 75.070312 11.851562 75.070312 L 69.6875 75.070312 C 70.691406 75.070312 71.5 74.257812 71.5 73.257812 L 71.5 35.390625 L 41.183594 9.007812 C 40.949219 8.800781 40.59375 8.800781 40.355469 9.007812 Z M 40.355469 9.007812 " fill-opacity="1" fill-rule="nonzero"/></g><g clip-path="url(#id2)"><path fill="#ff8100" d="M 40.355469 9.007812 L 37.941406 11.105469 C 48.8125 20.394531 66.113281 35.390625 66.113281 35.390625 L 66.113281 73.257812 C 66.113281 74.257812 65.300781 75.070312 64.300781 75.070312 L 69.6875 75.070312 C 70.691406 75.070312 71.5 74.257812 71.5 73.257812 L 71.5 35.390625 L 41.183594 9.007812 C 40.949219 8.800781 40.59375 8.800781 40.355469 9.007812 Z M 40.355469 9.007812 " fill-opacity="1" fill-rule="nonzero"/></g><path fill="#d96b37" d="M 24.6875 6.671875 L 10.714844 6.671875 C 10.34375 6.671875 10.042969 6.972656 10.042969 7.34375 L 10.042969 10.84375 C 10.042969 11.214844 10.34375 11.515625 10.714844 11.515625 L 24.6875 11.515625 C 25.058594 11.515625 25.359375 11.214844 25.359375 10.84375 L 25.359375 7.34375 C 25.359375 6.972656 25.058594 6.671875 24.6875 6.671875 Z M 24.6875 6.671875 " fill-opacity="1" fill-rule="nonzero"/><g clip-path="url(#id3)"><path fill="#d96b37" d="M 49.109375 42.179688 L 33.90625 42.179688 C 32.984375 42.179688 32.230469 42.929688 32.230469 43.855469 L 32.230469 75.070312 L 50.785156 75.070312 L 50.785156 43.855469 C 50.785156 42.929688 50.035156 42.179688 49.109375 42.179688 Z M 49.109375 42.179688 " fill-opacity="1" fill-rule="nonzero"/></g><g clip-path="url(#id4)"><path fill="#b14418" d="M 49.109375 42.179688 L 43.578125 42.179688 C 44.503906 42.179688 45.253906 42.929688 45.253906 43.855469 L 45.253906 75.070312 L 50.785156 75.070312 L 50.785156 43.855469 C 50.785156 42.929688 50.035156 42.179688 49.109375 42.179688 Z M 49.109375 42.179688 " fill-opacity="1" fill-rule="nonzero"/></g><g clip-path="url(#id5)"><path fill="#ff4d4a" d="M 0.816406 36.183594 L 10.039062 36.183594 L 40.355469 9.800781 C 40.59375 9.59375 40.949219 9.59375 41.183594 9.800781 L 71.5 36.183594 L 80.722656 36.183594 C 81.320312 36.183594 81.597656 35.441406 81.148438 35.046875 L 41.183594 0.269531 C 40.949219 0.0625 40.59375 0.0625 40.355469 0.269531 L 0.390625 35.046875 C -0.0585938 35.441406 0.21875 36.183594 0.816406 36.183594 Z M 0.816406 36.183594 " fill-opacity="1" fill-rule="nonzero"/></g><path fill="#b14418" d="M 24.6875 6.671875 L 19.828125 6.671875 L 19.828125 11.515625 L 24.6875 11.515625 C 25.058594 11.515625 25.359375 11.214844 25.359375 10.84375 L 25.359375 7.34375 C 25.359375 6.972656 25.058594 6.671875 24.6875 6.671875 Z M 24.6875 6.671875 " fill-opacity="1" fill-rule="nonzero"/></svg>