<svg xmlns="http://www.w3.org/2000/svg" xmlns:xlink="http://www.w3.org/1999/xlink" width="100" zoomAndPan="magnify" viewBox="0 0 75 78.749999" height="105" preserveAspectRatio="xMidYMid meet" version="1.0"><defs><clipPath id="id1"><path d="M 5 5 L 74.878906 5 L 74.878906 78.488281 L 5 78.488281 Z M 5 5 " clip-rule="nonzero"/></clipPath><clipPath id="id2"><path d="M 0.117188 0 L 73 0 L 73 77 L 0.117188 77 Z M 0.117188 0 " clip-rule="nonzero"/></clipPath></defs><g clip-path="url(#id1)"><path fill="#ff993b" d="M 74.835938 33.355469 L 74.835938 78.488281 L 51.859375 78.488281 L 50.476562 60.027344 C 50.175781 56.027344 46.847656 52.941406 42.839844 52.941406 L 37.90625 52.941406 C 33.898438 52.941406 30.566406 56.027344 30.269531 60.027344 L 28.882812 78.488281 L 5.910156 78.488281 L 5.910156 33.355469 L 40.371094 5.730469 Z M 74.835938 33.355469 " fill-opacity="1" fill-rule="nonzero"/></g><g clip-path="url(#id2)"><path fill="#545454" d="M 35.34375 0.40625 C 36.042969 -0.15625 37.039062 -0.15625 37.738281 0.40625 L 72.203125 28.03125 C 72.65625 28.394531 72.921875 28.945312 72.921875 29.527344 L 72.921875 74.65625 C 72.921875 75.714844 72.0625 76.570312 71.007812 76.570312 L 48.03125 76.570312 C 47.027344 76.570312 46.195312 75.800781 46.121094 74.800781 L 44.738281 56.339844 C 44.511719 53.34375 42.015625 51.023438 39.011719 51.023438 L 34.074219 51.023438 C 31.070312 51.023438 28.574219 53.34375 28.347656 56.339844 L 26.964844 74.800781 C 26.890625 75.800781 26.058594 76.570312 25.054688 76.570312 L 2.078125 76.570312 C 1.023438 76.570312 0.164062 75.714844 0.164062 74.65625 L 0.164062 29.527344 C 0.164062 28.945312 0.429688 28.394531 0.882812 28.03125 Z M 3.992188 30.445312 L 3.992188 72.742188 L 23.277344 72.742188 L 24.527344 56.054688 C 24.902344 51.058594 29.066406 47.195312 34.074219 47.195312 L 39.011719 47.195312 C 44.019531 47.195312 48.183594 51.058594 48.554688 56.054688 L 49.808594 72.742188 L 69.089844 72.742188 L 69.089844 30.445312 L 36.542969 4.355469 Z M 3.992188 30.445312 " fill-opacity="1" fill-rule="evenodd"/></g></svg>