<svg xmlns="http://www.w3.org/2000/svg" xmlns:xlink="http://www.w3.org/1999/xlink" width="100" zoomAndPan="magnify" viewBox="0 0 75 74.999997" height="100" preserveAspectRatio="xMidYMid meet" version="1.0"><defs><clipPath id="id1"><path d="M 1 11 L 51 11 L 51 38 L 1 38 Z M 1 11 " clip-rule="nonzero"/></clipPath><clipPath id="id2"><path d="M 10.378906 -5.894531 L 80.535156 10.296875 L 64.339844 80.453125 L -5.8125 64.261719 Z M 10.378906 -5.894531 " clip-rule="nonzero"/></clipPath><clipPath id="id3"><path d="M 10.378906 -5.894531 L 80.535156 10.296875 L 64.339844 80.453125 L -5.8125 64.261719 Z M 10.378906 -5.894531 " clip-rule="nonzero"/></clipPath><clipPath id="id4"><path d="M 23 37 L 74 37 L 74 64 L 23 64 Z M 23 37 " clip-rule="nonzero"/></clipPath><clipPath id="id5"><path d="M 10.378906 -5.894531 L 80.535156 10.296875 L 64.339844 80.453125 L -5.8125 64.261719 Z M 10.378906 -5.894531 " clip-rule="nonzero"/></clipPath><clipPath id="id6"><path d="M 10.378906 -5.894531 L 80.535156 10.296875 L 64.339844 80.453125 L -5.8125 64.261719 Z M 10.378906 -5.894531 " clip-rule="nonzero"/></clipPath><clipPath id="id7"><path d="M 37 1 L 64 1 L 64 51 L 37 51 Z M 37 1 " clip-rule="nonzero"/></clipPath><clipPath id="id8"><path d="M 10.378906 -5.894531 L 80.535156 10.296875 L 64.339844 80.453125 L -5.8125 64.261719 Z M 10.378906 -5.894531 " clip-rule="nonzero"/></clipPath><clipPath id="id9"><path d="M 10.378906 -5.894531 L 80.535156 10.296875 L 64.339844 80.453125 L -5.8125 64.261719 Z M 10.378906 -5.894531 " clip-rule="nonzero"/></clipPath><clipPath id="id10"><path d="M 11 23 L 38 23 L 38 74 L 11 74 Z M 11 23 " clip-rule="nonzero"/></clipPath><clipPath id="id11"><path d="M 10.378906 -5.894531 L 80.535156 10.296875 L 64.339844 80.453125 L -5.8125 64.261719 Z M 10.378906 -5.894531 " clip-rule="nonzero"/></clipPath><clipPath id="id12"><path d="M 10.378906 -5.894531 L 80.535156 10.296875 L 64.339844 80.453125 L -5.8125 64.261719 Z M 10.378906 -5.894531 " clip-rule="nonzero"/></clipPath></defs><g clip-path="url(#id1)"><g clip-path="url(#id2)"><g clip-path="url(#id3)"><path fill="#021859" d="M 45.074219 13.507812 C 41.261719 12.628906 37.457031 14.828125 36.261719 18.476562 L 31.300781 17.332031 C 31.605469 14.53125 29.773438 11.878906 26.957031 11.230469 C 23.917969 10.527344 20.886719 12.421875 20.1875 15.460938 C 19.980469 16.347656 19.996094 17.230469 20.199219 18.058594 L 14.519531 20.175781 C 13.933594 19.125 12.921875 18.320312 11.65625 18.027344 C 9.28125 17.476562 6.90625 18.960938 6.359375 21.339844 C 5.949219 23.101562 6.664062 24.863281 8.027344 25.882812 L 5.535156 30.601562 C 5.480469 30.585938 5.421875 30.570312 5.363281 30.558594 C 3.582031 30.144531 1.800781 31.257812 1.390625 33.042969 C 0.976562 34.824219 2.089844 36.605469 3.875 37.015625 C 5.65625 37.429688 7.4375 36.316406 7.847656 34.53125 C 8.140625 33.269531 7.664062 32.007812 6.730469 31.234375 L 9.222656 26.511719 C 9.367188 26.558594 9.515625 26.601562 9.667969 26.636719 C 12.046875 27.1875 14.421875 25.703125 14.96875 23.328125 C 15.117188 22.683594 15.117188 22.042969 14.992188 21.4375 L 20.671875 19.320312 C 21.40625 20.742188 22.738281 21.84375 24.417969 22.234375 C 27.234375 22.882812 30.042969 21.300781 30.996094 18.648438 L 35.960938 19.792969 C 35.429688 23.597656 37.886719 27.242188 41.703125 28.121094 C 45.738281 29.054688 49.761719 26.539062 50.695312 22.503906 C 51.625 18.46875 49.109375 14.441406 45.074219 13.507812 " fill-opacity="1" fill-rule="nonzero"/></g></g></g><g clip-path="url(#id4)"><g clip-path="url(#id5)"><g clip-path="url(#id6)"><path fill="#021859" d="M 29.640625 61.039062 C 33.453125 61.917969 37.257812 59.71875 38.449219 56.070312 L 43.414062 57.214844 C 43.109375 60.015625 44.941406 62.667969 47.757812 63.316406 C 50.796875 64.019531 53.828125 62.125 54.527344 59.085938 C 54.734375 58.199219 54.714844 57.316406 54.515625 56.492188 L 60.195312 54.371094 C 60.78125 55.421875 61.792969 56.226562 63.054688 56.519531 C 65.433594 57.070312 67.808594 55.585938 68.355469 53.207031 C 68.761719 51.445312 68.050781 49.683594 66.6875 48.667969 L 69.179688 43.945312 C 69.234375 43.960938 69.292969 43.976562 69.351562 43.988281 C 71.132812 44.402344 72.914062 43.289062 73.324219 41.503906 C 73.738281 39.722656 72.625 37.941406 70.839844 37.53125 C 69.058594 37.121094 67.277344 38.230469 66.867188 40.015625 C 66.574219 41.277344 67.046875 42.539062 67.984375 43.3125 L 65.492188 48.035156 C 65.347656 47.988281 65.199219 47.945312 65.042969 47.910156 C 62.667969 47.359375 60.292969 48.84375 59.746094 51.21875 C 59.597656 51.863281 59.597656 52.503906 59.722656 53.109375 L 54.042969 55.226562 C 53.308594 53.804688 51.976562 52.703125 50.296875 52.3125 C 47.480469 51.664062 44.671875 53.246094 43.714844 55.898438 L 38.753906 54.753906 C 39.28125 50.949219 36.828125 47.304688 33.011719 46.425781 C 28.976562 45.492188 24.949219 48.007812 24.019531 52.042969 C 23.089844 56.078125 25.605469 60.105469 29.640625 61.039062 " fill-opacity="1" fill-rule="nonzero"/></g></g></g><g clip-path="url(#id7)"><g clip-path="url(#id8)"><g clip-path="url(#id9)"><path fill="#4ed0f4" d="M 61.121094 44.992188 C 62 41.175781 59.800781 37.371094 56.152344 36.179688 L 57.296875 31.21875 C 60.101562 31.523438 62.75 29.6875 63.402344 26.875 C 64.101562 23.835938 62.207031 20.804688 59.167969 20.101562 C 58.285156 19.898438 57.398438 19.914062 56.574219 20.113281 L 54.457031 14.4375 C 55.503906 13.847656 56.3125 12.835938 56.601562 11.574219 C 57.152344 9.195312 55.667969 6.824219 53.292969 6.273438 C 51.527344 5.867188 49.765625 6.578125 48.75 7.945312 L 44.027344 5.453125 C 44.042969 5.394531 44.058594 5.339844 44.074219 5.28125 C 44.484375 3.496094 43.371094 1.71875 41.589844 1.304688 C 39.804688 0.894531 38.027344 2.007812 37.613281 3.789062 C 37.203125 5.574219 38.316406 7.351562 40.097656 7.765625 C 41.363281 8.054688 42.625 7.582031 43.398438 6.648438 L 48.121094 9.136719 C 48.070312 9.285156 48.027344 9.433594 47.992188 9.585938 C 47.445312 11.964844 48.925781 14.335938 51.304688 14.886719 C 51.945312 15.035156 52.585938 15.035156 53.191406 14.90625 L 55.308594 20.585938 C 53.886719 21.320312 52.785156 22.652344 52.398438 24.332031 C 51.746094 27.148438 53.328125 29.960938 55.980469 30.914062 L 54.835938 35.875 C 51.03125 35.347656 47.386719 37.804688 46.507812 41.617188 C 45.578125 45.652344 48.09375 49.679688 52.128906 50.609375 C 56.164062 51.542969 60.191406 49.027344 61.121094 44.992188 " fill-opacity="1" fill-rule="nonzero"/></g></g></g><g clip-path="url(#id10)"><g clip-path="url(#id11)"><g clip-path="url(#id12)"><path fill="#4ed0f4" d="M 13.59375 29.554688 C 12.710938 33.371094 14.914062 37.175781 18.5625 38.367188 L 17.417969 43.328125 C 14.613281 43.023438 11.964844 44.855469 11.3125 47.671875 C 10.613281 50.710938 12.507812 53.742188 15.542969 54.445312 C 16.429688 54.648438 17.3125 54.632812 18.140625 54.433594 L 20.257812 60.109375 C 19.210938 60.699219 18.402344 61.710938 18.109375 62.972656 C 17.5625 65.351562 19.042969 67.722656 21.421875 68.273438 C 23.1875 68.679688 24.949219 67.96875 25.964844 66.601562 L 30.683594 69.09375 C 30.671875 69.152344 30.652344 69.207031 30.640625 69.265625 C 30.230469 71.050781 31.339844 72.828125 33.125 73.242188 C 34.90625 73.652344 36.6875 72.539062 37.101562 70.757812 C 37.511719 68.972656 36.398438 67.195312 34.617188 66.78125 C 33.351562 66.492188 32.089844 66.964844 31.316406 67.902344 L 26.59375 65.410156 C 26.644531 65.261719 26.6875 65.113281 26.722656 64.960938 C 27.269531 62.582031 25.789062 60.210938 23.410156 59.660156 C 22.769531 59.515625 22.128906 59.511719 21.523438 59.640625 L 19.40625 53.960938 C 20.824219 53.226562 21.925781 51.894531 22.316406 50.214844 C 22.964844 47.398438 21.386719 44.589844 18.734375 43.632812 L 19.878906 38.671875 C 23.683594 39.199219 27.324219 36.742188 28.207031 32.929688 C 29.136719 28.894531 26.621094 24.867188 22.585938 23.9375 C 18.550781 23.003906 14.523438 25.519531 13.59375 29.554688 " fill-opacity="1" fill-rule="nonzero"/></g></g></g></svg>