<svg xmlns="http://www.w3.org/2000/svg" xmlns:xlink="http://www.w3.org/1999/xlink" width="507" zoomAndPan="magnify" viewBox="0 0 380.25 74.999997" height="100" preserveAspectRatio="xMidYMid meet" version="1.0"><defs><g/><clipPath id="id1"><path d="M 162 17 L 199 17 L 199 37 L 162 37 Z M 162 17 " clip-rule="nonzero"/></clipPath><clipPath id="id2"><path d="M 169.125 5.5 L 219.453125 17.113281 L 207.835938 67.441406 L 157.511719 55.824219 Z M 169.125 5.5 " clip-rule="nonzero"/></clipPath><clipPath id="id3"><path d="M 169.125 5.5 L 219.453125 17.113281 L 207.835938 67.441406 L 157.511719 55.824219 Z M 169.125 5.5 " clip-rule="nonzero"/></clipPath><clipPath id="id4"><path d="M 178 36 L 215 36 L 215 56 L 178 56 Z M 178 36 " clip-rule="nonzero"/></clipPath><clipPath id="id5"><path d="M 169.125 5.5 L 219.453125 17.113281 L 207.835938 67.441406 L 157.511719 55.824219 Z M 169.125 5.5 " clip-rule="nonzero"/></clipPath><clipPath id="id6"><path d="M 169.125 5.5 L 219.453125 17.113281 L 207.835938 67.441406 L 157.511719 55.824219 Z M 169.125 5.5 " clip-rule="nonzero"/></clipPath><clipPath id="id7"><path d="M 188 10 L 208 10 L 208 47 L 188 47 Z M 188 10 " clip-rule="nonzero"/></clipPath><clipPath id="id8"><path d="M 169.125 5.5 L 219.453125 17.113281 L 207.835938 67.441406 L 157.511719 55.824219 Z M 169.125 5.5 " clip-rule="nonzero"/></clipPath><clipPath id="id9"><path d="M 169.125 5.5 L 219.453125 17.113281 L 207.835938 67.441406 L 157.511719 55.824219 Z M 169.125 5.5 " clip-rule="nonzero"/></clipPath><clipPath id="id10"><path d="M 169 26 L 189 26 L 189 63 L 169 63 Z M 169 26 " clip-rule="nonzero"/></clipPath><clipPath id="id11"><path d="M 169.125 5.5 L 219.453125 17.113281 L 207.835938 67.441406 L 157.511719 55.824219 Z M 169.125 5.5 " clip-rule="nonzero"/></clipPath><clipPath id="id12"><path d="M 169.125 5.5 L 219.453125 17.113281 L 207.835938 67.441406 L 157.511719 55.824219 Z M 169.125 5.5 " clip-rule="nonzero"/></clipPath></defs><g clip-path="url(#id1)"><g clip-path="url(#id2)"><g clip-path="url(#id3)"><path fill="#021859" d="M 194.015625 19.417969 C 191.277344 18.789062 188.550781 20.363281 187.695312 22.984375 L 184.136719 22.160156 C 184.351562 20.152344 183.039062 18.25 181.019531 17.785156 C 178.839844 17.28125 176.664062 18.640625 176.160156 20.820312 C 176.015625 21.453125 176.027344 22.089844 176.171875 22.679688 L 172.097656 24.199219 C 171.675781 23.449219 170.949219 22.867188 170.042969 22.660156 C 168.335938 22.265625 166.636719 23.328125 166.242188 25.035156 C 165.949219 26.300781 166.460938 27.5625 167.441406 28.292969 L 165.652344 31.679688 C 165.613281 31.667969 165.570312 31.65625 165.527344 31.648438 C 164.25 31.351562 162.972656 32.152344 162.679688 33.429688 C 162.382812 34.710938 163.179688 35.984375 164.460938 36.28125 C 165.738281 36.578125 167.015625 35.777344 167.3125 34.5 C 167.519531 33.59375 167.179688 32.6875 166.507812 32.132812 L 168.296875 28.746094 C 168.402344 28.78125 168.507812 28.8125 168.617188 28.835938 C 170.324219 29.230469 172.023438 28.167969 172.417969 26.460938 C 172.523438 26 172.523438 25.542969 172.433594 25.105469 L 176.507812 23.589844 C 177.035156 24.609375 177.992188 25.398438 179.195312 25.675781 C 181.214844 26.144531 183.230469 25.007812 183.917969 23.105469 L 187.476562 23.925781 C 187.097656 26.65625 188.859375 29.269531 191.59375 29.902344 C 194.492188 30.570312 197.378906 28.765625 198.046875 25.871094 C 198.714844 22.976562 196.910156 20.085938 194.015625 19.417969 " fill-opacity="1" fill-rule="nonzero"/></g></g></g><g clip-path="url(#id4)"><g clip-path="url(#id5)"><g clip-path="url(#id6)"><path fill="#021859" d="M 182.941406 53.511719 C 185.679688 54.144531 188.410156 52.566406 189.261719 49.949219 L 192.824219 50.769531 C 192.605469 52.78125 193.917969 54.683594 195.9375 55.148438 C 198.117188 55.652344 200.292969 54.292969 200.796875 52.113281 C 200.941406 51.476562 200.929688 50.84375 200.789062 50.25 L 204.859375 48.730469 C 205.28125 49.484375 206.007812 50.0625 206.914062 50.273438 C 208.621094 50.664062 210.320312 49.601562 210.714844 47.894531 C 211.007812 46.628906 210.496094 45.367188 209.519531 44.636719 L 211.304688 41.25 C 211.347656 41.261719 211.386719 41.273438 211.429688 41.285156 C 212.707031 41.578125 213.984375 40.78125 214.28125 39.5 C 214.574219 38.222656 213.777344 36.945312 212.5 36.652344 C 211.21875 36.355469 209.941406 37.152344 209.648438 38.433594 C 209.4375 39.339844 209.777344 40.242188 210.449219 40.800781 L 208.660156 44.1875 C 208.558594 44.152344 208.449219 44.121094 208.339844 44.09375 C 206.632812 43.703125 204.933594 44.765625 204.539062 46.46875 C 204.433594 46.929688 204.433594 47.390625 204.523438 47.824219 L 200.449219 49.34375 C 199.921875 48.324219 198.96875 47.535156 197.761719 47.253906 C 195.742188 46.789062 193.726562 47.921875 193.039062 49.824219 L 189.480469 49.003906 C 189.859375 46.277344 188.097656 43.660156 185.363281 43.03125 C 182.46875 42.363281 179.578125 44.167969 178.910156 47.0625 C 178.242188 49.957031 180.046875 52.84375 182.941406 53.511719 " fill-opacity="1" fill-rule="nonzero"/></g></g></g><g clip-path="url(#id7)"><g clip-path="url(#id8)"><g clip-path="url(#id9)"><path fill="#4ed0f4" d="M 205.527344 42 C 206.15625 39.265625 204.578125 36.535156 201.960938 35.679688 L 202.78125 32.121094 C 204.792969 32.339844 206.695312 31.023438 207.160156 29.003906 C 207.664062 26.824219 206.304688 24.652344 204.125 24.148438 C 203.492188 24 202.855469 24.011719 202.265625 24.15625 L 200.742188 20.082031 C 201.496094 19.660156 202.074219 18.9375 202.285156 18.03125 C 202.679688 16.324219 201.617188 14.621094 199.910156 14.230469 C 198.644531 13.9375 197.378906 14.445312 196.652344 15.425781 L 193.265625 13.640625 C 193.277344 13.597656 193.285156 13.558594 193.296875 13.515625 C 193.589844 12.238281 192.792969 10.960938 191.515625 10.664062 C 190.234375 10.371094 188.957031 11.167969 188.664062 12.445312 C 188.367188 13.726562 189.167969 15.003906 190.445312 15.296875 C 191.351562 15.507812 192.257812 15.167969 192.8125 14.496094 L 196.199219 16.285156 C 196.164062 16.386719 196.132812 16.496094 196.109375 16.605469 C 195.714844 18.308594 196.777344 20.011719 198.484375 20.40625 C 198.945312 20.511719 199.402344 20.511719 199.835938 20.421875 L 201.355469 24.496094 C 200.335938 25.023438 199.546875 25.976562 199.269531 27.183594 C 198.800781 29.203125 199.933594 31.21875 201.839844 31.902344 L 201.015625 35.464844 C 198.289062 35.085938 195.675781 36.847656 195.042969 39.582031 C 194.375 42.476562 196.179688 45.367188 199.074219 46.035156 C 201.96875 46.703125 204.859375 44.898438 205.527344 42 " fill-opacity="1" fill-rule="nonzero"/></g></g></g><g clip-path="url(#id10)"><g clip-path="url(#id11)"><g clip-path="url(#id12)"><path fill="#4ed0f4" d="M 171.433594 30.929688 C 170.800781 33.664062 172.378906 36.394531 174.996094 37.25 L 174.175781 40.808594 C 172.164062 40.589844 170.261719 41.90625 169.796875 43.925781 C 169.292969 46.105469 170.652344 48.28125 172.832031 48.785156 C 173.464844 48.929688 174.101562 48.917969 174.695312 48.773438 L 176.214844 52.847656 C 175.460938 53.269531 174.882812 53.996094 174.671875 54.902344 C 174.277344 56.605469 175.34375 58.308594 177.046875 58.703125 C 178.3125 58.996094 179.578125 58.484375 180.304688 57.503906 L 183.691406 59.292969 C 183.683594 59.332031 183.671875 59.375 183.660156 59.414062 C 183.367188 60.695312 184.164062 61.972656 185.441406 62.265625 C 186.722656 62.5625 188 61.765625 188.292969 60.484375 C 188.589844 59.207031 187.792969 57.929688 186.511719 57.632812 C 185.605469 57.425781 184.699219 57.765625 184.144531 58.4375 L 180.757812 56.648438 C 180.792969 56.542969 180.824219 56.4375 180.851562 56.328125 C 181.242188 54.621094 180.179688 52.917969 178.472656 52.527344 C 178.015625 52.417969 177.554688 52.417969 177.121094 52.507812 L 175.601562 48.433594 C 176.621094 47.910156 177.410156 46.953125 177.6875 45.746094 C 178.15625 43.726562 177.023438 41.710938 175.117188 41.027344 L 175.941406 37.46875 C 178.667969 37.847656 181.285156 36.085938 181.914062 33.351562 C 182.582031 30.453125 180.777344 27.566406 177.882812 26.898438 C 174.988281 26.230469 172.101562 28.035156 171.433594 30.929688 " fill-opacity="1" fill-rule="nonzero"/></g></g></g><g fill="#021859" fill-opacity="1"><g transform="translate(1.231708, 59.870475)"><g><path d="M 36.921875 -46.359375 L 36.921875 0 L 31.171875 0 L 31.171875 -5.25 C 29.847656 -3.414062 28.164062 -2.019531 26.125 -1.0625 C 24.082031 -0.101562 21.832031 0.375 19.375 0.375 C 16.164062 0.375 13.289062 -0.332031 10.75 -1.75 C 8.207031 -3.164062 6.21875 -5.15625 4.78125 -7.71875 C 3.34375 -10.28125 2.625 -13.226562 2.625 -16.5625 C 2.625 -19.894531 3.34375 -22.832031 4.78125 -25.375 C 6.21875 -27.914062 8.207031 -29.890625 10.75 -31.296875 C 13.289062 -32.710938 16.164062 -33.421875 19.375 -33.421875 C 21.75 -33.421875 23.9375 -32.972656 25.9375 -32.078125 C 27.9375 -31.191406 29.601562 -29.875 30.9375 -28.125 L 30.9375 -46.359375 Z M 19.875 -4.875 C 21.957031 -4.875 23.851562 -5.363281 25.5625 -6.34375 C 27.269531 -7.320312 28.601562 -8.695312 29.5625 -10.46875 C 30.519531 -12.238281 31 -14.269531 31 -16.5625 C 31 -18.851562 30.519531 -20.882812 29.5625 -22.65625 C 28.601562 -24.425781 27.269531 -25.789062 25.5625 -26.75 C 23.851562 -27.707031 21.957031 -28.1875 19.875 -28.1875 C 17.75 -28.1875 15.84375 -27.707031 14.15625 -26.75 C 12.46875 -25.789062 11.132812 -24.425781 10.15625 -22.65625 C 9.175781 -20.882812 8.6875 -18.851562 8.6875 -16.5625 C 8.6875 -14.269531 9.175781 -12.238281 10.15625 -10.46875 C 11.132812 -8.695312 12.46875 -7.320312 14.15625 -6.34375 C 15.84375 -5.363281 17.75 -4.875 19.875 -4.875 Z M 19.875 -4.875 "/></g></g></g><g fill="#021859" fill-opacity="1"><g transform="translate(43.84592, 59.870475)"><g><path d="M 35.609375 -16.375 C 35.609375 -15.914062 35.566406 -15.3125 35.484375 -14.5625 L 8.625 -14.5625 C 9 -11.644531 10.28125 -9.300781 12.46875 -7.53125 C 14.65625 -5.757812 17.375 -4.875 20.625 -4.875 C 24.582031 -4.875 27.769531 -6.207031 30.1875 -8.875 L 33.484375 -5 C 31.984375 -3.25 30.117188 -1.914062 27.890625 -1 C 25.671875 -0.0820312 23.1875 0.375 20.4375 0.375 C 16.9375 0.375 13.832031 -0.34375 11.125 -1.78125 C 8.414062 -3.21875 6.320312 -5.226562 4.84375 -7.8125 C 3.363281 -10.394531 2.625 -13.3125 2.625 -16.5625 C 2.625 -19.769531 3.34375 -22.664062 4.78125 -25.25 C 6.21875 -27.832031 8.195312 -29.835938 10.71875 -31.265625 C 13.238281 -32.703125 16.082031 -33.421875 19.25 -33.421875 C 22.414062 -33.421875 25.234375 -32.703125 27.703125 -31.265625 C 30.179688 -29.835938 32.117188 -27.832031 33.515625 -25.25 C 34.910156 -22.664062 35.609375 -19.707031 35.609375 -16.375 Z M 19.25 -28.375 C 16.375 -28.375 13.96875 -27.5 12.03125 -25.75 C 10.09375 -24 8.957031 -21.707031 8.625 -18.875 L 29.875 -18.875 C 29.539062 -21.664062 28.40625 -23.945312 26.46875 -25.71875 C 24.53125 -27.488281 22.125 -28.375 19.25 -28.375 Z M 19.25 -28.375 "/></g></g></g><g fill="#021859" fill-opacity="1"><g transform="translate(82.086249, 59.870475)"><g><path d="M 34.984375 -33.109375 L 20.5 0 L 14.375 0 L -0.125 -33.109375 L 6.125 -33.109375 L 17.5 -6.5625 L 29.125 -33.109375 Z M 34.984375 -33.109375 "/></g></g></g><g fill="#021859" fill-opacity="1"><g transform="translate(117.014899, 59.870475)"><g><path d="M 23.625 -43.734375 C 29.28125 -43.734375 33.734375 -42.378906 36.984375 -39.671875 C 40.234375 -36.960938 41.859375 -33.238281 41.859375 -28.5 C 41.859375 -23.75 40.234375 -20.019531 36.984375 -17.3125 C 33.734375 -14.601562 29.28125 -13.25 23.625 -13.25 L 12.8125 -13.25 L 12.8125 0 L 6.5625 0 L 6.5625 -43.734375 Z M 23.4375 -18.6875 C 27.394531 -18.6875 30.410156 -19.53125 32.484375 -21.21875 C 34.566406 -22.90625 35.609375 -25.332031 35.609375 -28.5 C 35.609375 -31.65625 34.566406 -34.078125 32.484375 -35.765625 C 30.410156 -37.453125 27.394531 -38.296875 23.4375 -38.296875 L 12.8125 -38.296875 L 12.8125 -18.6875 Z M 23.4375 -18.6875 "/></g></g></g><g fill="#021859" fill-opacity="1"><g transform="translate(212.420921, 59.870475)"><g><path d="M 35.796875 0 L 26.375 -13.4375 C 25.207031 -13.351562 24.289062 -13.3125 23.625 -13.3125 L 12.8125 -13.3125 L 12.8125 0 L 6.5625 0 L 6.5625 -43.734375 L 23.625 -43.734375 C 29.28125 -43.734375 33.734375 -42.378906 36.984375 -39.671875 C 40.234375 -36.960938 41.859375 -33.238281 41.859375 -28.5 C 41.859375 -25.125 41.023438 -22.25 39.359375 -19.875 C 37.691406 -17.5 35.316406 -15.769531 32.234375 -14.6875 L 42.609375 0 Z M 23.4375 -18.625 C 27.394531 -18.625 30.410156 -19.476562 32.484375 -21.1875 C 34.566406 -22.894531 35.609375 -25.332031 35.609375 -28.5 C 35.609375 -31.65625 34.566406 -34.078125 32.484375 -35.765625 C 30.410156 -37.453125 27.394531 -38.296875 23.4375 -38.296875 L 12.8125 -38.296875 L 12.8125 -18.625 Z M 23.4375 -18.625 "/></g></g></g><g fill="#021859" fill-opacity="1"><g transform="translate(257.846917, 59.870475)"><g><path d="M 15.25 -38.296875 L 0.25 -38.296875 L 0.25 -43.734375 L 36.421875 -43.734375 L 36.421875 -38.296875 L 21.4375 -38.296875 L 21.4375 0 L 15.25 0 Z M 15.25 -38.296875 "/></g></g></g><g fill="#021859" fill-opacity="1"><g transform="translate(294.525147, 59.870475)"><g><path d="M 34.421875 -10.9375 L 11.1875 -10.9375 L 6.375 0 L -0.0625 0 L 19.75 -43.734375 L 25.9375 -43.734375 L 45.796875 0 L 39.234375 0 Z M 32.234375 -15.9375 L 22.8125 -37.359375 L 13.375 -15.9375 Z M 32.234375 -15.9375 "/></g></g></g><g fill="#021859" fill-opacity="1"><g transform="translate(340.263557, 59.870475)"><g><path d="M 6.5625 -43.734375 L 12.8125 -43.734375 L 12.8125 -5.4375 L 36.484375 -5.4375 L 36.484375 0 L 6.5625 0 Z M 6.5625 -43.734375 "/></g></g></g></svg>