<svg xmlns="http://www.w3.org/2000/svg" xmlns:xlink="http://www.w3.org/1999/xlink" width="100" zoomAndPan="magnify" viewBox="0 0 75 74.999997" height="100" preserveAspectRatio="xMidYMid meet" version="1.0"><defs><clipPath id="id1"><path d="M 0 0 L 74.992188 0 L 74.992188 75 L 0 75 Z M 0 0 " clip-rule="nonzero"/></clipPath></defs><g clip-path="url(#id1)"><path fill="#000000" d="M 74.003906 70.78125 L 59.851562 56.574219 C 65.03125 50.574219 68.167969 42.75 68.167969 34.203125 C 68.167969 15.34375 52.882812 0 34.089844 0 C 15.300781 0 0.015625 15.34375 0.015625 34.203125 C 0.015625 53.066406 15.300781 68.410156 34.089844 68.410156 C 42.605469 68.410156 50.398438 65.257812 56.375 60.0625 L 70.53125 74.265625 C 71.007812 74.75 71.640625 74.988281 72.265625 74.988281 C 72.894531 74.988281 73.523438 74.75 74.003906 74.265625 C 74.964844 73.304688 74.964844 71.742188 74.003906 70.78125 Z M 34.089844 63.476562 C 18.011719 63.476562 4.929688 50.347656 4.929688 34.203125 C 4.929688 18.0625 18.011719 4.933594 34.089844 4.933594 C 50.171875 4.933594 63.253906 18.0625 63.253906 34.203125 C 63.253906 50.34375 50.171875 63.476562 34.089844 63.476562 Z M 34.089844 63.476562 " fill-opacity="1" fill-rule="nonzero"/></g></svg>