<svg xmlns="http://www.w3.org/2000/svg" xmlns:xlink="http://www.w3.org/1999/xlink" width="100" zoomAndPan="magnify" viewBox="0 0 75 74.999997" height="100" preserveAspectRatio="xMidYMid meet" version="1.0"><path fill="#545454" d="M 20.324219 13.171875 C 18.878906 14.058594 17.535156 15.125 16.332031 16.328125 C 12.25 20.402344 10 25.824219 10 31.589844 C 10 32.972656 11.117188 34.089844 12.5 34.089844 C 13.882812 34.089844 15 32.972656 15 31.589844 C 15 27.160156 16.726562 22.996094 19.867188 19.863281 C 20.796875 18.933594 21.832031 18.113281 22.941406 17.433594 C 24.117188 16.707031 24.488281 15.171875 23.765625 13.992188 C 23.039062 12.816406 21.5 12.453125 20.324219 13.171875 Z M 20.324219 13.171875 " fill-opacity="1" fill-rule="nonzero"/><path fill="#545454" d="M 63.882812 52.28125 C 62.894531 51.410156 61.394531 51.460938 60.464844 52.394531 L 58.195312 54.660156 L 55.601562 52.066406 C 60.492188 46.359375 63.179688 39.191406 63.179688 31.59375 C 63.179688 23.15625 59.894531 15.222656 53.917969 9.261719 C 47.957031 3.289062 40.03125 0 31.59375 0 C 23.15625 0 15.222656 3.292969 9.265625 9.261719 C 3.289062 15.222656 0 23.15625 0 31.59375 C 0 40.03125 3.292969 47.960938 9.261719 53.914062 C 15.222656 59.890625 23.15625 63.179688 31.59375 63.179688 C 39.191406 63.179688 46.363281 60.492188 52.066406 55.601562 L 54.660156 58.195312 L 52.394531 60.464844 C 51.460938 61.394531 51.410156 62.890625 52.28125 63.882812 L 59.378906 71.960938 C 61 73.8125 63.335938 74.914062 65.792969 74.996094 C 65.886719 74.996094 65.980469 75 66.078125 75 C 68.433594 75 70.71875 74.058594 72.386719 72.386719 C 74.125 70.652344 75.074219 68.246094 74.996094 65.789062 C 74.914062 63.335938 73.8125 61 71.964844 59.378906 Z M 31.59375 58.179688 C 24.492188 58.179688 17.816406 55.414062 12.796875 50.378906 C 7.769531 45.367188 5 38.695312 5 31.589844 C 5 24.492188 7.769531 17.816406 12.800781 12.796875 C 17.816406 7.769531 24.488281 5 31.59375 5 C 38.695312 5 45.367188 7.769531 50.382812 12.796875 C 50.382812 12.796875 50.382812 12.796875 50.386719 12.800781 C 55.414062 17.816406 58.179688 24.492188 58.179688 31.589844 C 58.179688 38.695312 55.414062 45.367188 50.382812 50.386719 C 45.367188 55.414062 38.695312 58.179688 31.59375 58.179688 Z M 68.851562 68.851562 C 68.078125 69.625 67.027344 70.050781 65.953125 69.996094 C 64.859375 69.960938 63.859375 69.488281 63.136719 68.664062 L 57.585938 62.34375 L 62.34375 57.585938 L 68.667969 63.136719 C 69.488281 63.859375 69.960938 64.859375 69.996094 65.953125 C 70.035156 67.046875 69.625 68.078125 68.851562 68.851562 Z M 68.851562 68.851562 " fill-opacity="1" fill-rule="nonzero"/></svg>