<svg xmlns="http://www.w3.org/2000/svg" xmlns:xlink="http://www.w3.org/1999/xlink" width="118" zoomAndPan="magnify" viewBox="0 0 88.5 74.999997" height="100" preserveAspectRatio="xMidYMid meet" version="1.0"><defs><clipPath id="id1"><path d="M 2 2 L 87 2 L 87 74.789062 L 2 74.789062 Z M 2 2 " clip-rule="nonzero"/></clipPath></defs><path fill="#a6a6a6" d="M 46.753906 20 C 25.410156 -7.660156 0.03125 20.941406 13.066406 37.164062 C 24.019531 50.800781 30.679688 55.941406 46.671875 70.71875 C 63.074219 55.335938 68.828125 50.199219 80.28125 37.164062 C 94.472656 21.015625 68.550781 -10.382812 46.753906 20 " fill-opacity="1" fill-rule="nonzero"/><g clip-path="url(#id1)"><path fill="#545454" d="M 77.636719 37.164062 C 66.183594 50.199219 60.433594 55.335938 44.03125 70.71875 C 28.039062 55.941406 21.378906 50.800781 10.421875 37.164062 C 1.3125 25.828125 10.96875 8.441406 24.890625 8.441406 C 30.894531 8.441406 37.683594 11.667969 44.113281 20 C 50.71875 10.789062 57.707031 7.257812 63.839844 7.257812 C 77.9375 7.253906 87.527344 25.914062 77.636719 37.164062 Z M 76.109375 6.925781 C 72.441406 4.269531 68.199219 2.863281 63.84375 2.863281 L 63.84375 7.257812 L 63.84375 2.863281 C 58.757812 2.863281 51.460938 4.765625 43.976562 13.132812 C 36.75 5.742188 29.769531 4.050781 24.890625 4.050781 C 20.570312 4.050781 16.351562 5.386719 12.695312 7.914062 C 9.3125 10.25 6.566406 13.480469 4.753906 17.25 C 3.023438 20.847656 2.25 24.746094 2.511719 28.53125 C 2.800781 32.691406 4.351562 36.628906 6.992188 39.914062 C 15.964844 51.085938 22.175781 56.734375 32.464844 66.09375 C 34.988281 68.386719 37.847656 70.992188 41.042969 73.941406 C 41.886719 74.71875 42.957031 75.109375 44.03125 75.109375 C 45.113281 75.109375 46.195312 74.710938 47.042969 73.917969 C 48.625 72.433594 50.109375 71.046875 51.507812 69.738281 C 64.519531 57.558594 70.457031 51.996094 80.945312 40.0625 C 83.835938 36.773438 85.582031 32.738281 85.996094 28.390625 C 86.371094 24.46875 85.660156 20.390625 83.941406 16.601562 C 82.171875 12.707031 79.464844 9.359375 76.109375 6.925781 " fill-opacity="1" fill-rule="nonzero"/></g></svg>