<svg xmlns="http://www.w3.org/2000/svg" xmlns:xlink="http://www.w3.org/1999/xlink" width="100" zoomAndPan="magnify" viewBox="0 0 75 74.999997" height="100" preserveAspectRatio="xMidYMid meet" version="1.0"><path fill="#a6a6a6" d="M 1.25 13.75 L 1.25 58.726562 C 1.25 50.488281 7.988281 43.75 16.226562 43.75 L 71.25 43.75 C 72.632812 43.75 73.75 44.867188 73.75 46.25 L 73.75 1.25 L 13.75 1.273438 C 6.25 1.25 1.25 6.25 1.25 13.75 Z M 1.25 13.75 " fill-opacity="1" fill-rule="nonzero"/><path fill="#d9d9d9" d="M 71.25 43.75 L 16.226562 43.75 C 7.988281 43.75 1.25 50.488281 1.25 58.726562 C 1.25 66.988281 8.011719 73.75 16.273438 73.75 L 71.25 73.75 C 72.632812 73.75 73.75 72.632812 73.75 71.25 C 73.75 69.867188 72.632812 68.75 71.25 68.75 L 16.273438 68.75 C 10.761719 68.75 6.25 64.238281 6.25 58.726562 C 6.25 53.238281 10.738281 48.75 16.226562 48.75 L 71.25 48.75 C 72.632812 48.75 73.75 47.632812 73.75 46.25 C 73.75 44.867188 72.632812 43.75 71.25 43.75 Z M 71.25 43.75 " fill-opacity="1" fill-rule="nonzero"/><path fill="#e7e7e7" d="M 6.25 58.726562 C 6.25 64.238281 10.761719 68.75 16.273438 68.75 L 71.238281 68.75 C 63.910156 66.433594 63.921875 51.066406 71.25 48.75 L 16.226562 48.75 C 10.738281 48.75 6.25 53.238281 6.25 58.726562 Z M 22.5 63.75 L 18.75 58.75 L 15 63.75 L 15 53.75 L 22.5 53.75 Z M 22.5 63.75 " fill-opacity="1" fill-rule="nonzero"/><path fill="#d9d9d9" d="M 15 63.75 L 18.75 58.75 L 22.5 63.75 L 22.5 53.75 L 15 53.75 Z M 15 63.75 " fill-opacity="1" fill-rule="nonzero"/><path fill="#545454" d="M 13.75 53.75 L 13.75 63.75 C 13.75 64.289062 14.09375 64.765625 14.605469 64.933594 C 15.117188 65.109375 15.675781 64.929688 16 64.5 L 18.75 60.832031 L 21.5 64.5 C 21.738281 64.820312 22.113281 65 22.5 65 C 22.632812 65 22.765625 64.976562 22.894531 64.933594 C 23.40625 64.765625 23.75 64.289062 23.75 63.75 L 23.75 53.75 C 23.75 53.058594 23.191406 52.5 22.5 52.5 L 15 52.5 C 14.308594 52.5 13.75 53.058594 13.75 53.75 Z M 16.25 55 L 21.25 55 L 21.25 60 L 19.75 58 C 19.515625 57.683594 19.140625 57.5 18.75 57.5 C 18.359375 57.5 17.984375 57.683594 17.75 58 L 16.25 60 Z M 16.25 55 " fill-opacity="1" fill-rule="nonzero"/><path fill="#545454" d="M 73.75 0 L 13.75 0.0234375 C 13.730469 0.0234375 13.714844 0.0234375 13.695312 0.0234375 C 9.707031 0.0234375 6.289062 1.328125 3.8125 3.796875 C 1.320312 6.285156 0 9.726562 0 13.75 L 0 58.726562 C 0 67.699219 7.300781 75 16.273438 75 L 71.25 75 C 73.316406 75 75 73.316406 75 71.25 C 75 69.28125 73.46875 67.679688 71.539062 67.527344 C 68.402344 66.476562 66.996094 62.382812 66.996094 58.761719 C 66.996094 55.125 68.410156 51.019531 71.554688 49.96875 C 73.476562 49.8125 75 48.214844 75 46.25 L 75 1.25 C 75 0.917969 74.867188 0.601562 74.632812 0.367188 C 74.398438 0.132812 74.082031 0 73.75 0 Z M 2.5 13.75 C 2.5 10.402344 3.566406 7.578125 5.578125 5.570312 C 7.578125 3.578125 10.382812 2.523438 13.695312 2.523438 C 13.710938 2.523438 13.730469 2.523438 13.746094 2.523438 L 13.75 1.273438 L 13.75 2.523438 L 72.5 2.5 L 72.5 42.730469 C 72.109375 42.589844 71.691406 42.5 71.25 42.5 L 16.25 42.5 L 16.25 8.75 L 13.75 8.75 L 13.75 42.707031 C 9.015625 43.4375 4.953125 46.214844 2.5 50.109375 Z M 64.496094 58.761719 C 64.496094 62.335938 65.523438 65.421875 67.285156 67.5 L 16.273438 67.5 C 11.4375 67.5 7.5 63.5625 7.5 58.726562 C 7.5 53.914062 11.414062 50 16.226562 50 L 67.292969 50 C 65.527344 52.082031 64.496094 55.175781 64.496094 58.761719 Z M 71.25 47.5 L 16.226562 47.5 C 10.035156 47.5 5 52.535156 5 58.726562 C 5 64.941406 10.058594 70 16.273438 70 L 71.25 70 C 71.941406 70 72.5 70.558594 72.5 71.25 C 72.5 71.941406 71.941406 72.5 71.25 72.5 L 16.273438 72.5 C 8.679688 72.5 2.5 66.320312 2.5 58.726562 C 2.5 51.15625 8.65625 45 16.226562 45 L 71.25 45 C 71.941406 45 72.5 45.558594 72.5 46.25 C 72.5 46.941406 71.941406 47.5 71.25 47.5 Z M 71.25 47.5 " fill-opacity="1" fill-rule="nonzero"/><path fill="#545454" d="M 36.25 32.5 L 38.75 32.5 L 38.75 35 L 36.25 35 Z M 36.25 32.5 " fill-opacity="1" fill-rule="nonzero"/><path fill="#545454" d="M 41.25 32.5 L 43.75 32.5 L 43.75 35 L 41.25 35 Z M 41.25 32.5 " fill-opacity="1" fill-rule="nonzero"/><path fill="#545454" d="M 46.25 32.5 L 48.75 32.5 L 48.75 35 L 46.25 35 Z M 46.25 32.5 " fill-opacity="1" fill-rule="nonzero"/><path fill="#545454" d="M 34.117188 24.632812 L 35.882812 22.867188 L 33.015625 20 L 35.882812 17.132812 L 34.117188 15.367188 L 30.367188 19.117188 C 29.878906 19.605469 29.878906 20.394531 30.367188 20.882812 Z M 34.117188 24.632812 " fill-opacity="1" fill-rule="nonzero"/><path fill="#545454" d="M 40.109375 23.234375 L 45.105469 11.992188 L 47.390625 13.007812 L 42.394531 24.25 Z M 40.109375 23.234375 " fill-opacity="1" fill-rule="nonzero"/><path fill="#545454" d="M 50.882812 24.632812 L 54.632812 20.882812 C 55.121094 20.394531 55.121094 19.605469 54.632812 19.117188 L 50.882812 15.367188 L 49.117188 17.132812 L 51.984375 20 L 49.117188 22.867188 Z M 50.882812 24.632812 " fill-opacity="1" fill-rule="nonzero"/></svg>